<svg width="32" height="32" viewBox="0 0 32 32" fill="none" xmlns="http://www.w3.org/2000/svg">
<path d="M29.3158 2.01801H2.6842V28.6496H29.3158V2.01801Z" fill="#F1DC50"/>
<path d="M16 14.2242C16 19.4941 16 22.4532 16 23.1014C16 24.0736 15.4198 25.3207 13.7807 25.3207C11.1338 25.3207 11.0066 23.1014 11.0066 23.1014M25.7538 17.0161C25.0879 15.8946 24.2052 15.3338 23.1057 15.3338C21.3889 15.3338 20.4386 16.4435 20.4386 17.5531C20.4386 18.6628 20.9934 19.7724 23.2221 20.3273C24.6403 20.6803 25.9869 21.4369 25.9869 23.1014C25.9869 24.7659 24.5272 25.3207 23.2127 25.3207C21.5329 25.3207 20.4233 24.5809 19.8838 23.1014" stroke="#333333" stroke-width="2.12779"/>
</svg>
