<svg width="32" height="32" viewBox="0 0 32 32" fill="none" xmlns="http://www.w3.org/2000/svg">
<path d="M24.6249 8.18811L15.9885 13.1785L7.34509 8.18969L15.9875 3.19843L24.6249 8.18811Z" fill="#FEEA5F"/>
<path d="M13.5251 27.3017L4.95316 22.3543V12.3842L13.5251 17.3297V27.3017Z" fill="#E0CC41"/>
<path d="M18.299 17.2338L27.1435 12.1277V22.4661L18.299 27.5705V17.2338Z" fill="#EFDB50"/>
<path d="M7.91584 8.18962L15.9882 12.8488L24.0541 8.18814L15.9873 3.52809C14.2057 4.55698 11.5152 6.11082 7.91584 8.18962ZM15.965 0.384796L29.3411 8.17081L22.9581 13.1785L15.8948 15.8786L9.26932 13.7145L2.65887 8.16976L15.965 0.384796Z" fill="#C3C2C2"/>
<path d="M18.7356 26.8083L26.707 22.2078V12.89L18.7356 17.492V26.8083ZM15.889 15.8786L29.3411 8.18848V23.7543L15.889 31.4369L15.2066 23.7543L15.889 15.8786Z" fill="#B3B3B3"/>
<path d="M13.2446 17.4942L5.23363 12.8724V22.19L13.2446 26.8136V17.4942ZM2.65887 8.18848L15.8948 15.8786L15.889 31.4368L2.65887 23.8131V8.18848Z" fill="#A5A5A4"/>
</svg>
